<mxfile modified="2021-03-10T11:06:42.832Z" host="app.diagrams.net" agent="5.0 (Macintosh; Intel Mac OS X 11_2_2) AppleWebKit/537.36 (KHTML, like Gecko) Chrome/89.0.4389.82 Safari/537.36" etag="2YInGcEMHaQ7q0GDyagq" version="14.4.3" type="github">
  <diagram id="l8hXMBHkgcEJcSW0mbfh" name="Page-1">
    <mxGraphModel dx="1426" dy="800" grid="0" gridSize="10" guides="1" tooltips="1" connect="1" arrows="1" fold="1" page="1" pageScale="1" pageWidth="1169" pageHeight="827" background="#FFFDF0" math="0" shadow="0">
      <root>
        <mxCell id="0" />
        <mxCell id="1" parent="0" />
        <mxCell id="4Cnt78TRsHW3hThkRCCR-1" value="" style="pointerEvents=1;shadow=0;dashed=0;html=1;strokeColor=none;labelPosition=center;verticalLabelPosition=bottom;verticalAlign=top;align=center;fillColor=#66B2FF;shape=mxgraph.azure.mobile" parent="1" vertex="1">
          <mxGeometry x="223" y="339" width="24" height="40" as="geometry" />
        </mxCell>
        <mxCell id="4Cnt78TRsHW3hThkRCCR-56" style="edgeStyle=orthogonalEdgeStyle;curved=1;rounded=1;jumpStyle=arc;orthogonalLoop=1;jettySize=auto;html=1;exitX=0.5;exitY=1;exitDx=0;exitDy=0;exitPerimeter=0;entryX=0.5;entryY=1;entryDx=0;entryDy=0;endArrow=classic;endFill=1;strokeWidth=2;strokeColor=#FF3333;" parent="1" source="4Cnt78TRsHW3hThkRCCR-2" target="4Cnt78TRsHW3hThkRCCR-12" edge="1">
          <mxGeometry relative="1" as="geometry" />
        </mxCell>
        <mxCell id="4Cnt78TRsHW3hThkRCCR-2" value="" style="aspect=fixed;pointerEvents=1;shadow=0;dashed=0;html=1;strokeColor=none;labelPosition=center;verticalLabelPosition=bottom;verticalAlign=top;align=center;fillColor=#808080;shape=mxgraph.azure.computer" parent="1" vertex="1">
          <mxGeometry x="210" y="457" width="50" height="45" as="geometry" />
        </mxCell>
        <mxCell id="4Cnt78TRsHW3hThkRCCR-4" value="" style="aspect=fixed;pointerEvents=1;shadow=0;dashed=0;html=1;strokeColor=none;labelPosition=center;verticalLabelPosition=bottom;verticalAlign=top;align=center;fillColor=#0066CC;shape=mxgraph.azure.laptop" parent="1" vertex="1">
          <mxGeometry x="133" y="397" width="50" height="30" as="geometry" />
        </mxCell>
        <mxCell id="4Cnt78TRsHW3hThkRCCR-9" style="edgeStyle=orthogonalEdgeStyle;rounded=0;orthogonalLoop=1;jettySize=auto;html=1;exitX=0.5;exitY=1;exitDx=0;exitDy=0;exitPerimeter=0;" parent="1" source="4Cnt78TRsHW3hThkRCCR-4" target="4Cnt78TRsHW3hThkRCCR-4" edge="1">
          <mxGeometry relative="1" as="geometry" />
        </mxCell>
        <mxCell id="4Cnt78TRsHW3hThkRCCR-64" style="edgeStyle=orthogonalEdgeStyle;curved=1;rounded=1;jumpStyle=arc;orthogonalLoop=1;jettySize=auto;html=1;exitX=0.5;exitY=1;exitDx=0;exitDy=0;entryX=0;entryY=0.5;entryDx=0;entryDy=0;endArrow=classic;endFill=1;strokeWidth=2;fontSize=16;strokeColor=#FF3333;" parent="1" source="4Cnt78TRsHW3hThkRCCR-12" target="4Cnt78TRsHW3hThkRCCR-22" edge="1">
          <mxGeometry relative="1" as="geometry">
            <Array as="points">
              <mxPoint x="515" y="462" />
            </Array>
          </mxGeometry>
        </mxCell>
        <mxCell id="4Cnt78TRsHW3hThkRCCR-98" style="edgeStyle=orthogonalEdgeStyle;curved=1;rounded=1;jumpStyle=arc;orthogonalLoop=1;jettySize=auto;html=1;exitX=1;exitY=0.5;exitDx=0;exitDy=0;entryX=-0.047;entryY=0.6;entryDx=0;entryDy=0;entryPerimeter=0;endArrow=none;endFill=0;strokeWidth=2;fontSize=16;" parent="1" source="4Cnt78TRsHW3hThkRCCR-12" target="4Cnt78TRsHW3hThkRCCR-22" edge="1">
          <mxGeometry relative="1" as="geometry" />
        </mxCell>
        <mxCell id="4Cnt78TRsHW3hThkRCCR-12" value="&lt;b&gt;&lt;font style=&quot;font-size: 18px&quot;&gt;&amp;nbsp;交换机 1&lt;/font&gt;&lt;/b&gt;" style="rhombus;whiteSpace=wrap;html=1;strokeWidth=2;fillWeight=-1;hachureGap=8;fillStyle=solid;sketch=1;shadow=1;glass=0;fillColor=#d5e8d4;" parent="1" vertex="1">
          <mxGeometry x="330" y="387" width="107" height="60" as="geometry" />
        </mxCell>
        <mxCell id="4Cnt78TRsHW3hThkRCCR-15" value="" style="shape=curlyBracket;whiteSpace=wrap;html=1;rounded=1;shadow=1;glass=0;sketch=1;strokeWidth=3;fillColor=#B9E0A5;direction=west;size=0.5;" parent="1" vertex="1">
          <mxGeometry x="292" y="357" width="20" height="120" as="geometry" />
        </mxCell>
        <mxCell id="4Cnt78TRsHW3hThkRCCR-28" value="" style="edgeStyle=orthogonalEdgeStyle;rounded=1;jumpStyle=arc;orthogonalLoop=1;jettySize=auto;html=1;strokeWidth=2;curved=1;endArrow=none;endFill=0;" parent="1" source="4Cnt78TRsHW3hThkRCCR-22" target="4Cnt78TRsHW3hThkRCCR-27" edge="1">
          <mxGeometry relative="1" as="geometry" />
        </mxCell>
        <mxCell id="4Cnt78TRsHW3hThkRCCR-36" style="edgeStyle=orthogonalEdgeStyle;curved=1;rounded=1;jumpStyle=arc;orthogonalLoop=1;jettySize=auto;html=1;exitX=0.5;exitY=0;exitDx=0;exitDy=0;entryX=0.5;entryY=1;entryDx=0;entryDy=0;endArrow=none;endFill=0;strokeWidth=2;" parent="1" source="4Cnt78TRsHW3hThkRCCR-22" target="4Cnt78TRsHW3hThkRCCR-29" edge="1">
          <mxGeometry relative="1" as="geometry" />
        </mxCell>
        <mxCell id="4Cnt78TRsHW3hThkRCCR-99" style="edgeStyle=orthogonalEdgeStyle;curved=1;rounded=1;jumpStyle=arc;orthogonalLoop=1;jettySize=auto;html=1;exitX=1;exitY=0.5;exitDx=0;exitDy=0;endArrow=classic;endFill=1;strokeWidth=2;fontSize=16;strokeColor=#FF3333;" parent="1" source="4Cnt78TRsHW3hThkRCCR-22" target="4Cnt78TRsHW3hThkRCCR-27" edge="1">
          <mxGeometry relative="1" as="geometry">
            <Array as="points">
              <mxPoint x="601" y="409" />
              <mxPoint x="690" y="409" />
            </Array>
          </mxGeometry>
        </mxCell>
        <mxCell id="4Cnt78TRsHW3hThkRCCR-22" value="&lt;b&gt;&lt;font style=&quot;font-size: 18px&quot;&gt;&amp;nbsp;路由器 1&lt;/font&gt;&lt;/b&gt;" style="ellipse;whiteSpace=wrap;html=1;strokeWidth=2;fillWeight=2;hachureGap=8;fillStyle=solid;sketch=1;shadow=1;glass=0;fillColor=#fad9d5;" parent="1" vertex="1">
          <mxGeometry x="515" y="339" width="86" height="70" as="geometry" />
        </mxCell>
        <mxCell id="4Cnt78TRsHW3hThkRCCR-96" style="edgeStyle=orthogonalEdgeStyle;curved=1;rounded=1;jumpStyle=arc;orthogonalLoop=1;jettySize=auto;html=1;exitX=0.5;exitY=0;exitDx=0;exitDy=0;entryX=0.5;entryY=1;entryDx=0;entryDy=0;endArrow=none;endFill=0;strokeWidth=2;fontSize=16;" parent="1" source="4Cnt78TRsHW3hThkRCCR-27" target="4Cnt78TRsHW3hThkRCCR-80" edge="1">
          <mxGeometry relative="1" as="geometry" />
        </mxCell>
        <mxCell id="4Cnt78TRsHW3hThkRCCR-105" style="edgeStyle=orthogonalEdgeStyle;curved=1;rounded=1;jumpStyle=arc;orthogonalLoop=1;jettySize=auto;html=1;exitX=0.5;exitY=1;exitDx=0;exitDy=0;entryX=0;entryY=0.5;entryDx=0;entryDy=0;endArrow=classic;endFill=1;strokeWidth=2;fontSize=16;strokeColor=#FF3333;" parent="1" source="4Cnt78TRsHW3hThkRCCR-27" target="4Cnt78TRsHW3hThkRCCR-37" edge="1">
          <mxGeometry relative="1" as="geometry" />
        </mxCell>
        <mxCell id="4Cnt78TRsHW3hThkRCCR-27" value="&lt;b&gt;&lt;font style=&quot;font-size: 18px&quot;&gt;路由器 2&lt;/font&gt;&lt;/b&gt;" style="ellipse;whiteSpace=wrap;html=1;strokeWidth=2;fillWeight=2;hachureGap=8;fillStyle=solid;sketch=1;shadow=1;glass=0;fillColor=#fad9d5;" parent="1" vertex="1">
          <mxGeometry x="690" y="339" width="83" height="69" as="geometry" />
        </mxCell>
        <mxCell id="4Cnt78TRsHW3hThkRCCR-29" value="&lt;b&gt;&lt;font style=&quot;font-size: 18px&quot;&gt;交换机 2&lt;/font&gt;&lt;/b&gt;" style="rhombus;whiteSpace=wrap;html=1;strokeWidth=2;fillWeight=-1;hachureGap=8;fillStyle=solid;sketch=1;shadow=1;glass=0;fillColor=#d5e8d4;" parent="1" vertex="1">
          <mxGeometry x="392.63" y="219" width="110.75" height="60" as="geometry" />
        </mxCell>
        <mxCell id="4Cnt78TRsHW3hThkRCCR-76" style="edgeStyle=orthogonalEdgeStyle;curved=1;rounded=1;jumpStyle=arc;orthogonalLoop=1;jettySize=auto;html=1;exitX=0.5;exitY=1;exitDx=0;exitDy=0;entryX=0.5;entryY=1;entryDx=0;entryDy=0;entryPerimeter=0;endArrow=classic;endFill=1;strokeWidth=2;fontSize=16;strokeColor=#FF3333;" parent="1" source="4Cnt78TRsHW3hThkRCCR-37" target="4Cnt78TRsHW3hThkRCCR-51" edge="1">
          <mxGeometry relative="1" as="geometry" />
        </mxCell>
        <mxCell id="4Cnt78TRsHW3hThkRCCR-37" value="&lt;b&gt;&lt;font style=&quot;font-size: 18px&quot;&gt;&amp;nbsp;交换机 3&lt;/font&gt;&lt;/b&gt;" style="rhombus;whiteSpace=wrap;html=1;strokeWidth=2;fillWeight=-1;hachureGap=8;fillStyle=solid;sketch=1;shadow=1;glass=0;fillColor=#d5e8d4;" parent="1" vertex="1">
          <mxGeometry x="682" y="489" width="107" height="60" as="geometry" />
        </mxCell>
        <mxCell id="4Cnt78TRsHW3hThkRCCR-39" value="" style="shape=curlyBracket;whiteSpace=wrap;html=1;rounded=1;shadow=1;glass=0;sketch=1;strokeWidth=3;fillColor=#FFCCCC;direction=north;" parent="1" vertex="1">
          <mxGeometry x="388" y="178" width="120" height="20" as="geometry" />
        </mxCell>
        <mxCell id="4Cnt78TRsHW3hThkRCCR-40" value="&amp;nbsp;设备 1" style="shape=ext;double=1;rounded=1;whiteSpace=wrap;html=1;shadow=1;glass=0;sketch=1;strokeWidth=3;fillColor=none;" parent="1" vertex="1">
          <mxGeometry x="353" y="115" width="53" height="44" as="geometry" />
        </mxCell>
        <mxCell id="4Cnt78TRsHW3hThkRCCR-41" value="&amp;nbsp;设备 2" style="shape=ext;double=1;rounded=1;whiteSpace=wrap;html=1;shadow=1;glass=0;sketch=1;strokeWidth=3;fillColor=none;" parent="1" vertex="1">
          <mxGeometry x="427" y="61" width="53" height="44" as="geometry" />
        </mxCell>
        <mxCell id="4Cnt78TRsHW3hThkRCCR-42" value="&amp;nbsp;设备 n" style="shape=ext;double=1;rounded=1;whiteSpace=wrap;html=1;shadow=1;glass=0;sketch=1;strokeWidth=3;fillColor=none;" parent="1" vertex="1">
          <mxGeometry x="498" y="115" width="53" height="44" as="geometry" />
        </mxCell>
        <mxCell id="4Cnt78TRsHW3hThkRCCR-49" value="" style="shape=curlyBracket;whiteSpace=wrap;html=1;rounded=1;shadow=1;glass=0;sketch=1;strokeWidth=3;fillColor=#B9E0A5;direction=east;size=0.5;" parent="1" vertex="1">
          <mxGeometry x="810" y="458" width="20" height="120" as="geometry" />
        </mxCell>
        <mxCell id="4Cnt78TRsHW3hThkRCCR-50" value="" style="pointerEvents=1;shadow=0;dashed=0;html=1;strokeColor=none;labelPosition=center;verticalLabelPosition=bottom;verticalAlign=top;align=center;fillColor=#66B2FF;shape=mxgraph.azure.mobile" parent="1" vertex="1">
          <mxGeometry x="942" y="440" width="24" height="40" as="geometry" />
        </mxCell>
        <mxCell id="4Cnt78TRsHW3hThkRCCR-51" value="" style="aspect=fixed;pointerEvents=1;shadow=0;dashed=0;html=1;strokeColor=none;labelPosition=center;verticalLabelPosition=bottom;verticalAlign=top;align=center;fillColor=#808080;shape=mxgraph.azure.computer" parent="1" vertex="1">
          <mxGeometry x="929" y="558" width="50" height="45" as="geometry" />
        </mxCell>
        <mxCell id="4Cnt78TRsHW3hThkRCCR-52" value="" style="aspect=fixed;pointerEvents=1;shadow=0;dashed=0;html=1;strokeColor=none;labelPosition=center;verticalLabelPosition=bottom;verticalAlign=top;align=center;fillColor=#0066CC;shape=mxgraph.azure.laptop" parent="1" vertex="1">
          <mxGeometry x="852" y="498" width="50" height="30" as="geometry" />
        </mxCell>
        <mxCell id="4Cnt78TRsHW3hThkRCCR-53" style="edgeStyle=orthogonalEdgeStyle;rounded=0;orthogonalLoop=1;jettySize=auto;html=1;exitX=0.5;exitY=1;exitDx=0;exitDy=0;exitPerimeter=0;" parent="1" source="4Cnt78TRsHW3hThkRCCR-52" target="4Cnt78TRsHW3hThkRCCR-52" edge="1">
          <mxGeometry relative="1" as="geometry" />
        </mxCell>
        <mxCell id="4Cnt78TRsHW3hThkRCCR-58" value="①" style="text;html=1;align=center;verticalAlign=middle;resizable=0;points=[];autosize=1;fontSize=16;" parent="1" vertex="1">
          <mxGeometry x="298" y="530" width="26" height="23" as="geometry" />
        </mxCell>
        <mxCell id="4Cnt78TRsHW3hThkRCCR-59" value="" style="shape=image;html=1;verticalAlign=top;verticalLabelPosition=bottom;labelBackgroundColor=#ffffff;imageAspect=0;aspect=fixed;image=https://cdn3.iconfinder.com/data/icons/letters-and-numbers-1/32/letter_A_blue-128.png;shadow=1;glass=0;sketch=1;strokeWidth=3;fillColor=none;" parent="1" vertex="1">
          <mxGeometry x="226.5" y="467" width="17" height="17" as="geometry" />
        </mxCell>
        <mxCell id="4Cnt78TRsHW3hThkRCCR-62" value="" style="shape=image;html=1;verticalAlign=top;verticalLabelPosition=bottom;labelBackgroundColor=#ffffff;imageAspect=0;aspect=fixed;image=https://cdn3.iconfinder.com/data/icons/letters-and-numbers-1/32/letter_B_blue-128.png;shadow=1;glass=0;sketch=1;strokeWidth=3;fillColor=none;" parent="1" vertex="1">
          <mxGeometry x="945.5" y="568" width="17" height="17" as="geometry" />
        </mxCell>
        <mxCell id="4Cnt78TRsHW3hThkRCCR-65" value="&lt;span style=&quot;color: rgb(51 , 51 , 51) ; background-color: rgb(255 , 255 , 255)&quot;&gt;&lt;font style=&quot;font-size: 16px&quot;&gt;②&lt;/font&gt;&lt;/span&gt;" style="text;html=1;align=center;verticalAlign=middle;resizable=0;points=[];autosize=1;fontSize=16;" parent="1" vertex="1">
          <mxGeometry x="462" y="464" width="26" height="23" as="geometry" />
        </mxCell>
        <mxCell id="4Cnt78TRsHW3hThkRCCR-80" value="&lt;b&gt;&lt;font style=&quot;font-size: 18px&quot;&gt;&amp;nbsp;交换机 4&lt;/font&gt;&lt;/b&gt;" style="rhombus;whiteSpace=wrap;html=1;strokeWidth=2;fillWeight=-1;hachureGap=8;fillStyle=solid;sketch=1;shadow=1;glass=0;fillColor=#d5e8d4;" parent="1" vertex="1">
          <mxGeometry x="626" y="214" width="107" height="60" as="geometry" />
        </mxCell>
        <mxCell id="4Cnt78TRsHW3hThkRCCR-92" value="" style="shape=curlyBracket;whiteSpace=wrap;html=1;rounded=1;shadow=1;glass=0;sketch=1;strokeWidth=3;fillColor=#FFCCCC;direction=east;" parent="1" vertex="1">
          <mxGeometry x="756" y="184" width="20" height="120" as="geometry" />
        </mxCell>
        <mxCell id="4Cnt78TRsHW3hThkRCCR-93" value="&amp;nbsp;设备 1" style="shape=ext;double=1;rounded=1;whiteSpace=wrap;html=1;shadow=1;glass=0;sketch=1;strokeWidth=3;fillColor=none;" parent="1" vertex="1">
          <mxGeometry x="798" y="218" width="53" height="44" as="geometry" />
        </mxCell>
        <mxCell id="4Cnt78TRsHW3hThkRCCR-94" value="&amp;nbsp;设备 2" style="shape=ext;double=1;rounded=1;whiteSpace=wrap;html=1;shadow=1;glass=0;sketch=1;strokeWidth=3;fillColor=none;" parent="1" vertex="1">
          <mxGeometry x="855.5" y="148" width="53" height="44" as="geometry" />
        </mxCell>
        <mxCell id="4Cnt78TRsHW3hThkRCCR-95" value="&amp;nbsp;设备 n" style="shape=ext;double=1;rounded=1;whiteSpace=wrap;html=1;shadow=1;glass=0;sketch=1;strokeWidth=3;fillColor=none;" parent="1" vertex="1">
          <mxGeometry x="855.5" y="284" width="53" height="44" as="geometry" />
        </mxCell>
        <mxCell id="4Cnt78TRsHW3hThkRCCR-100" value="&lt;br/&gt;&lt;br/&gt;&lt;br/&gt;&lt;br/&gt;&lt;br/&gt;&lt;br/&gt;&lt;br/&gt;&lt;p style=&quot;margin: 0in ; font-family: &amp;#34;microsoft yahei&amp;#34; ; font-size: 14.0pt&quot; lang=&quot;zh-CN&quot;&gt;③&lt;/p&gt;" style="text;html=1;align=center;verticalAlign=middle;resizable=0;points=[];autosize=1;fontSize=16;" parent="1" vertex="1">
          <mxGeometry x="626" y="284" width="29" height="156" as="geometry" />
        </mxCell>
        <mxCell id="4Cnt78TRsHW3hThkRCCR-106" value="&lt;br/&gt;&lt;br/&gt;&lt;br/&gt;&lt;br/&gt;&lt;br/&gt;&lt;br/&gt;&lt;br/&gt;&lt;p style=&quot;margin: 0in ; font-family: &amp;#34;microsoft yahei&amp;#34; ; font-size: 14.0pt&quot; lang=&quot;zh-CN&quot;&gt;④&lt;/p&gt;" style="text;html=1;align=center;verticalAlign=middle;resizable=0;points=[];autosize=1;fontSize=16;" parent="1" vertex="1">
          <mxGeometry x="674" y="326" width="29" height="156" as="geometry" />
        </mxCell>
        <mxCell id="4Cnt78TRsHW3hThkRCCR-107" value="&lt;br/&gt;&lt;br/&gt;&lt;br/&gt;&lt;br/&gt;&lt;br/&gt;&lt;br/&gt;&lt;br/&gt;&lt;p style=&quot;margin: 0in ; font-family: &amp;#34;microsoft yahei&amp;#34; ; font-size: 14.0pt&quot; lang=&quot;zh-CN&quot;&gt;⑤&lt;/p&gt;" style="text;html=1;align=center;verticalAlign=middle;resizable=0;points=[];autosize=1;fontSize=16;" parent="1" vertex="1">
          <mxGeometry x="805.5" y="498.5" width="29" height="156" as="geometry" />
        </mxCell>
      </root>
    </mxGraphModel>
  </diagram>
</mxfile>
